<?xml version="1.0" encoding="utf-8"?>
<!-- Generator: Adobe Illustrator 28.2.0, SVG Export Plug-In . SVG Version: 6.00 Build 0)  -->
<svg version="1.1" id="Layer_1" xmlns="http://www.w3.org/2000/svg" xmlns:xlink="http://www.w3.org/1999/xlink" x="0px" y="0px"
	 viewBox="0 0 300 300" style="enable-background:new 0 0 300 300;" xml:space="preserve">
<style type="text/css">
	.st0{fill:#12B3BA;stroke:#12B3BA;stroke-miterlimit:10;}
	.st1{fill:#0C77B6;stroke:#0C77B6;stroke-miterlimit:10;}
	.st2{clip-path:url(#SVGID_00000181786884389062823610000005153468483683228095_);}
	.st3{clip-path:url(#SVGID_00000009562705201907266590000002109768449860980638_);fill:#0C77B6;}
	.st4{clip-path:url(#SVGID_00000009562705201907266590000002109768449860980638_);fill:#12B3BA;}
</style>
<g>
	<path class="st0" d="M134.82,74.4c-7.59-0.15-14.23-6.68-14.19-13.95c0.04-7.48,7.22-14.21,14.79-13.84
		c7.71,0.37,14.15,6.94,13.91,14.19C149.08,68.17,142.28,74.55,134.82,74.4z M134.78,72.41c7.36,0.07,12.6-4.83,12.63-11.82
		c0.03-6.86-4.94-11.86-11.94-12c-7.42-0.15-12.75,4.64-12.88,11.56C122.46,67.26,127.52,72.34,134.78,72.41z"/>
	<path class="st0" d="M257.34,132.7c-0.17,7.36-6.92,13.77-14.42,13.7c-7.78-0.08-14.6-6.96-14.23-14.35
		c0.38-7.42,7.24-13.73,14.64-13.45C250.99,118.89,257.51,125.45,257.34,132.7z M243.22,144.41c7.26-0.07,12.32-5.15,12.19-12.26
		c-0.12-6.76-5.25-11.55-12.38-11.56c-7.34-0.01-12.47,4.95-12.44,12C230.62,139.58,235.85,144.48,243.22,144.41z"/>
	<path class="st0" d="M77.36,169.49c0,7.28-6.66,13.79-14.24,13.91c-7.68,0.12-14.67-6.71-14.47-14.14
		c0.2-7.36,6.97-13.76,14.46-13.65C70.71,155.71,77.36,162.2,77.36,169.49z M63.08,181.41c7.28-0.03,12.4-5.06,12.33-12.12
		c-0.07-6.79-5.16-11.65-12.24-11.7c-7.37-0.05-12.56,4.85-12.58,11.87C50.57,176.49,55.75,181.44,63.08,181.41z"/>
	<path class="st0" d="M170.98,225.6c7.52-0.01,14.25,6.43,14.36,13.76c0.12,7.45-6.95,14.25-14.58,14.04
		c-7.61-0.21-14.21-6.75-14.12-14.01C156.73,232.07,163.44,225.61,170.98,225.6z M171.1,251.41c7.28-0.03,12.39-5.08,12.3-12.14
		c-0.08-6.79-5.17-11.63-12.26-11.68c-7.36-0.04-12.55,4.86-12.55,11.89C158.58,246.51,163.76,251.44,171.1,251.41z"/>
	<path class="st0" d="M78.18,191.29c18.57,13.93,36,12.72,52.42-3.71C118.14,205.35,94.84,207.65,78.18,191.29z"/>
	<path class="st0" d="M116.36,125.63c-18.22-13.92-19.73-36.38-3.92-52.48C98.45,91.86,99.87,109.29,116.36,125.63z"/>
	<path class="st0" d="M195.49,163.21c16.15,13.85,17.02,38.33-1.55,53.26C210.1,199.16,210.82,181.41,195.49,163.21z"/>
	<path class="st0" d="M231.95,109.2c-17.32-15.32-34.72-15.82-52.63,0.14c2.48-5.95,14-12.36,22.09-13.05
		C213.68,95.25,226.76,100.55,231.95,109.2z"/>
	<g>
		<path class="st1" d="M188.28,86.65c-5.32-5.42-5.5-14.72-0.39-19.9c5.26-5.32,15.1-5.11,20.25,0.44
			c5.25,5.66,5.26,14.85,0.02,19.86C202.82,92.16,193.5,91.97,188.28,86.65z M189.64,85.19c5.21,5.2,12.38,5.35,17.29,0.38
			c4.82-4.88,4.76-11.94-0.14-16.93c-5.2-5.29-12.36-5.6-17.29-0.74C184.44,72.9,184.49,80.07,189.64,85.19z"/>
		<path class="st1" d="M235.12,213.99c-5.27,5.14-14.58,5.01-19.89-0.29c-5.51-5.5-5.58-15.18-0.14-20.21
			c5.46-5.04,14.78-4.75,19.87,0.62C240.23,199.68,240.3,208.92,235.12,213.99z M216.83,212.49c5.24,5.03,12.41,4.93,17.29-0.24
			c4.64-4.92,4.32-11.93-0.77-16.92c-5.24-5.14-12.38-5.18-17.29-0.12C211.2,200.23,211.52,207.39,216.83,212.49z"/>
		<path class="st1" d="M84.55,112.6c-5.21,4.62-14.28,3.77-19.4-1.82c-5.18-5.66-4.93-15.23,0.51-19.8
			c5.4-4.53,14.47-3.52,19.36,2.15C89.99,98.88,89.77,107.98,84.55,112.6z M66.55,109.49c4.85,5.43,11.85,6.06,16.85,1.53
			c4.81-4.37,4.91-11.25,0.24-16.58c-4.85-5.54-11.8-6.32-16.83-1.88C61.77,97.01,61.66,104.02,66.55,109.49z"/>
		<path class="st1" d="M113.42,218.04c5.39,5.25,5.69,14.56,0.65,19.88c-5.12,5.4-14.93,5.33-20.24-0.16
			c-5.3-5.47-5.44-14.76-0.3-19.89C98.71,212.69,108.02,212.77,113.42,218.04z M95.46,236.58c5.23,5.07,12.41,5.03,17.29-0.08
			c4.69-4.91,4.44-11.93-0.61-16.92c-5.23-5.18-12.37-5.3-17.29-0.28C89.94,224.31,90.19,231.46,95.46,236.58z"/>
		<path class="st1" d="M66.06,130.62c3.54,22.95,16.85,34.26,40.07,34C84.79,168.61,66.53,153.97,66.06,130.62z"/>
		<path class="st1" d="M139.26,110.37c-3.3-22.69,11.33-39.81,33.89-40.26C150.07,73.7,138.89,87.16,139.26,110.37z"/>
		<path class="st1" d="M169.56,192.56c1.86,21.19-14.63,39.31-38.35,36.99C154.87,228.48,167.8,216.3,169.56,192.56z"/>
		<path class="st1" d="M233.39,179.44c-1.67-23.06-13.77-35.59-37.73-36.7c5.93-2.52,18.66,0.95,24.92,6.11
			C230.08,156.69,235.72,169.63,233.39,179.44z"/>
	</g>
</g>
<g>
	<g>
		<defs>
			<rect id="SVGID_1_" x="96" y="96" width="108" height="108"/>
		</defs>
		<clipPath id="SVGID_00000121965739022630755770000001428017906760500143_">
			<use xlink:href="#SVGID_1_"  style="overflow:visible;"/>
		</clipPath>
		<g style="clip-path:url(#SVGID_00000121965739022630755770000001428017906760500143_);">
			<defs>
				<rect id="SVGID_00000124125359416286305820000006951487670138240688_" x="96" y="96" width="108" height="108"/>
			</defs>
			<clipPath id="SVGID_00000044875324974543051100000000567038850216566450_">
				<use xlink:href="#SVGID_00000124125359416286305820000006951487670138240688_"  style="overflow:visible;"/>
			</clipPath>
			<path style="clip-path:url(#SVGID_00000044875324974543051100000000567038850216566450_);fill:#0C77B6;" d="M168.75,175.26
				c-0.38,2.07-1.91,2.75-3.7,3.05c-0.85,0.14-1.73,0.17-2.6,0.18c-1.9,0.02-3.81,0-5.71-0.01c-0.21,0-0.42-0.02-0.66-0.04v-1.47
				c0.58-0.05,1.17-0.06,1.76-0.15c2.06-0.33,3.75-1.21,4.72-3.18c0.26-0.54,0.28-0.98,0.01-1.55c-4.12-8.58-8.21-17.18-12.31-25.77
				c-0.08-0.16-0.16-0.32-0.28-0.56c-0.1,0.19-0.18,0.31-0.24,0.43c-1.41,3.05-2.82,6.1-4.24,9.14c-0.16,0.34-0.12,0.51,0.19,0.72
				c1.99,1.34,4.15,2.14,6.57,2.13c0.35,0,0.53,0.1,0.66,0.44c0.4,1.03,0.84,2.05,1.31,3.19c-1.06,0.03-2.05,0.13-3.02,0.08
				c-3.32-0.18-6.45-1.08-9.48-2.42c-2.66-1.18-5.09-2.69-7.12-4.79c-2.96-3.06-4.57-6.72-4.94-10.96c-0.11-1.31-0.38-2.61-0.7-3.88
				c-0.45-1.8-1.58-3.1-3.25-3.92c-0.68-0.34-1.38-0.63-2.11-0.96c0.26-0.66,0.71-1.15,1.29-1.52c1.03-0.66,2.19-0.78,3.38-0.71
				c2.2,0.13,4.05,0.93,5.31,2.83c0.14,0.21,0.26,0.43,0.4,0.67c0.42-0.47,0.79-0.93,1.22-1.35c1.15-1.13,2.49-1.86,4.15-1.89
				c1.56-0.03,2.57,0.89,3.5,1.95c-0.04,0.06-0.04,0.07-0.06,0.08c-2.82,1.31-3.86,3.67-3.82,6.61c0.05,3.49,0.85,6.8,2.59,9.85
				c0.24,0.43,0.53,0.83,0.8,1.25c0.03,0.05,0.09,0.07,0.18,0.15c3.04-6.7,6.07-13.37,9.14-20.14c4.18,8.03,8.32,15.98,12.49,23.99
				c0.2-0.13,0.38-0.23,0.53-0.36c0.83-0.69,1.37-1.58,1.74-2.58c0.57-1.54,0.78-3.15,0.67-4.78c-0.15-2.13-1.25-3.71-3-4.87
				c-1.08-0.71-2.26-1.17-3.51-1.47c-0.19-0.04-0.37-0.09-0.64-0.16c0.18-0.32,0.31-0.62,0.5-0.88c1.35-1.89,3.27-2.6,5.51-2.55
				c1.75,0.04,3.19,0.85,4.49,1.95c0.18,0.15,0.36,0.32,0.54,0.48c0.05-0.03,0.11-0.05,0.12-0.08c1.05-1.89,4.37-3.26,7.25-2.39
				c1.41,0.43,2.34,1.54,2.43,2.87c0.02,0.31-0.06,0.43-0.38,0.45c-0.39,0.03-0.78,0.08-1.15,0.17c-1.87,0.47-3.14,2.01-3.26,3.95
				c-0.02,0.24-0.01,0.48-0.01,0.72c0,4.17,0,8.34,0,12.51v0.6c-0.92,0-1.8,0.01-2.68-0.01c-0.11,0-0.25-0.16-0.33-0.28
				c-0.64-0.92-1.27-1.85-1.9-2.78c-0.1-0.15-0.18-0.3-0.31-0.53c-1.3,1.6-2.85,2.8-4.69,3.67c0.09,0.19,0.16,0.34,0.23,0.48
				c1.35,2.59,2.69,5.19,4.05,7.78c1.26,2.38,2.9,4.45,5.03,6.1c1.61,1.24,3.41,2.12,5.57,2.19c0,0.45,0.02,0.88-0.01,1.3
				c-0.01,0.08-0.19,0.21-0.3,0.22c-0.39,0.02-0.78-0.02-1.17-0.02c-1.35,0-2.7,0.01-4.05,0
				C172.73,178.42,170.46,177.49,168.75,175.26"/>
			<path style="clip-path:url(#SVGID_00000044875324974543051100000000567038850216566450_);fill:#12B3BA;" d="M171.46,123.3
				c1.28-0.98,2.53-1.95,3.84-2.97v12.73c-0.89,0-1.75,0-2.62,0c-0.42,0-0.94,0.13-1.22-0.07c-0.28-0.2-0.33-0.73-0.48-1.12
				c-1.52-4-3.78-7.48-7.23-10.09c-3.27-2.46-6.98-3.42-11.04-3.15c-2.19,0.15-4.31,0.57-6.3,1.51c-4.02,1.89-6.35,5.14-7.39,9.37
				c-0.21,0.84-0.42,1.36-1.41,1.49c-1.08,0.14-1.98,0.82-2.82,1.51c-0.11,0.09-0.23,0.19-0.29,0.24c-0.61-0.44-1.17-0.91-1.78-1.26
				c-0.6-0.35-1.27-0.59-1.94-0.89c0.01-0.05,0-0.13,0.02-0.19c1.46-4.2,3.58-7.98,6.86-11.04c3.3-3.08,7.23-4.74,11.72-5.09
				c3.46-0.27,6.89-0.14,10.26,0.73c4.23,1.1,7.88,3.16,10.65,6.63C170.7,122.15,171.05,122.71,171.46,123.3"/>
			<path style="clip-path:url(#SVGID_00000044875324974543051100000000567038850216566450_);fill:#12B3BA;" d="M135.31,175.35
				c-0.8,1.8-2.33,2.32-3.93,2.7c-1.72,0.41-3.47,0.46-5.23,0.44c-0.35,0-0.47-0.14-0.47-0.49c-0.01-1.03-0.02-1.03,0.99-1.22
				c1.32-0.24,2.6-0.61,3.79-1.23c1.25-0.65,2.22-1.56,2.83-2.85c1.34-2.85,2.7-5.68,4.05-8.53c0.47-0.99,0.93-1.98,1.39-2.97
				c1.09,0.54,2.17,1.07,3.28,1.63c-0.05,0.12-0.11,0.27-0.18,0.41c-1.31,2.83-2.63,5.65-3.91,8.49c-0.14,0.3-0.19,0.7-0.13,1.03
				c0.47,2.61,2.23,4.08,4.87,4.15c0.12,0,0.23,0.02,0.39,0.03c-0.03,0.45-0.05,0.88-0.12,1.31c-0.01,0.09-0.21,0.21-0.32,0.21
				c-1.64,0.07-3.27,0.04-4.85-0.48C136.51,177.59,135.54,176.89,135.31,175.35"/>
		</g>
	</g>
</g>
<g>
</g>
<g>
</g>
<g>
</g>
<g>
</g>
<g>
</g>
<g>
</g>
<g>
</g>
<g>
</g>
<g>
</g>
<g>
</g>
<g>
</g>
<g>
</g>
<g>
</g>
<g>
</g>
<g>
</g>
</svg>
